# xmcd
#
# Track frame offsets:
#	150
#	10860
#	26767
#	36399
#	46865
#	59442
#	70835
#	81162
#	93718
#	105967
#
# Disc length: 1540 seconds
#
# Revision: 0
# Processed by: cddbd v1.5.2PL0 Copyright (c) Steve Scherf et al.
# Submitted via: dBpowerAMP V4.0
#
DISCID=7c06020a
DTITLE=Willie Nelson and Web Pierce - In The Jailhouse Now
DYEAR=1982
DGENRE=Country
TTITLE0=There Stands The Glass
TTITLE1=Wondering
TTITLE2=In The Jailhouse Now
TTITLE3=You're Not Mine Anymore
TTITLE4=Heebie Jeebie Blues
TTITLE5=Slowly
TTITLE6=I Don't Care
TTITLE7=Back Street Affair
TTITLE8=Let Me Be The First To Know
TTITLE9=More And More
EXTD=
EXTT0=
EXTT1=
EXTT2=
EXTT3=
EXTT4=
EXTT5=
EXTT6=
EXTT7=
EXTT8=
EXTT9=
PLAYORDER=
